<svg width="464" height="21" viewBox="0 0 464 21" fill="none" xmlns="http://www.w3.org/2000/svg">
<path d="M2 12.2093L4.18021 10.5C12.0443 4.33449 23.1015 4.33449 30.9656 10.5V10.5C38.8297 16.6655 49.887 16.6655 57.751 10.5V10.5C65.6151 4.33449 76.6724 4.33449 84.5365 10.5V10.5C92.4005 16.6655 103.458 16.6655 111.322 10.5V10.5C119.186 4.33449 130.243 4.33449 138.107 10.5V10.5C145.971 16.6655 157.029 16.6655 164.893 10.5V10.5C172.757 4.33449 183.814 4.33449 191.678 10.5V10.5C199.542 16.6655 210.599 16.6655 218.464 10.5V10.5C226.328 4.33449 237.385 4.33449 245.249 10.5V10.5C253.113 16.6655 264.17 16.6655 272.034 10.5V10.5C279.898 4.33449 290.956 4.33449 298.82 10.5L301 12.2093" stroke="url(#paint0_linear_143_586)" stroke-width="3" stroke-linecap="round"/>
<path d="M163 12.2093L165.18 10.5C173.044 4.33449 184.102 4.33449 191.966 10.5V10.5C199.83 16.6655 210.887 16.6655 218.751 10.5V10.5C226.615 4.33449 237.672 4.33449 245.536 10.5V10.5C253.401 16.6655 264.458 16.6655 272.322 10.5V10.5C280.186 4.33449 291.243 4.33449 299.107 10.5V10.5C306.971 16.6655 318.029 16.6655 325.893 10.5V10.5C333.757 4.33449 344.814 4.33449 352.678 10.5V10.5C360.542 16.6655 371.599 16.6655 379.464 10.5V10.5C387.328 4.33449 398.385 4.33449 406.249 10.5V10.5C414.113 16.6655 425.17 16.6655 433.034 10.5V10.5C440.898 4.33449 451.956 4.33449 459.82 10.5L462 12.2093" stroke="url(#paint1_linear_143_586)" stroke-width="3" stroke-linecap="round"/>
<defs>
<linearGradient id="paint0_linear_143_586" x1="301" y1="10.5" x2="2" y2="10.5" gradientUnits="userSpaceOnUse">
<stop stop-color="#727BC1"/>
<stop offset="1" stop-color="#8F69C4"/>
</linearGradient>
<linearGradient id="paint1_linear_143_586" x1="462" y1="10.5" x2="163" y2="10.5" gradientUnits="userSpaceOnUse">
<stop stop-color="#727BC1"/>
<stop offset="1" stop-color="#8F69C4"/>
</linearGradient>
</defs>
</svg>
