<svg width="1240" height="1050" viewBox="0 0 1240 1050" fill="none" xmlns="http://www.w3.org/2000/svg">
<mask id="path-1-inside-1_116_1343" fill="white">
<path d="M1240 204C1240 215.046 1231.05 224 1220 224H661C649.954 224 641 232.954 641 244V328C641 339.046 649.954 348 661 348H1220C1231.05 348 1240 356.954 1240 368V614C1240 625.046 1231.05 634 1220 634H661C649.954 634 641 642.954 641 654V746C641 757.046 649.954 766 661 766H1220C1231.05 766 1240 774.954 1240 786V1030C1240 1041.05 1231.05 1050 1220 1050H619C607.954 1050 599 1041.05 599 1030V866C599 854.954 590.046 846 579 846H20C8.9543 846 0 837.046 0 826V562C0 550.954 8.9543 542 20 542H576C587.046 542 596 533.046 596 522V448C596 436.954 587.046 428 576 428H20C8.95431 428 0 419.046 0 408V124C0 112.954 8.9543 104 20 104H579C590.046 104 599 95.0457 599 84V20C599 8.95431 607.954 0 619 0H1220C1231.05 0 1240 8.95431 1240 20V204Z"/>
</mask>
<path d="M1240 204C1240 215.046 1231.05 224 1220 224H661C649.954 224 641 232.954 641 244V328C641 339.046 649.954 348 661 348H1220C1231.05 348 1240 356.954 1240 368V614C1240 625.046 1231.05 634 1220 634H661C649.954 634 641 642.954 641 654V746C641 757.046 649.954 766 661 766H1220C1231.05 766 1240 774.954 1240 786V1030C1240 1041.05 1231.05 1050 1220 1050H619C607.954 1050 599 1041.05 599 1030V866C599 854.954 590.046 846 579 846H20C8.9543 846 0 837.046 0 826V562C0 550.954 8.9543 542 20 542H576C587.046 542 596 533.046 596 522V448C596 436.954 587.046 428 576 428H20C8.95431 428 0 419.046 0 408V124C0 112.954 8.9543 104 20 104H579C590.046 104 599 95.0457 599 84V20C599 8.95431 607.954 0 619 0H1220C1231.05 0 1240 8.95431 1240 20V204Z" fill="#444066"/>
<path d="M1220 224V222H661V224V226H1220V224ZM641 244H639V328H641H643V244H641ZM661 348V350H1220V348V346H661V348ZM1240 368H1238V614H1240H1242V368H1240ZM1220 634V632H661V634V636H1220V634ZM641 654H639V746H641H643V654H641ZM661 766V768H1220V766V764H661V766ZM1240 786H1238V1030H1240H1242V786H1240ZM1220 1050V1048H619V1050V1052H1220V1050ZM599 1030H601V866H599H597V1030H599ZM579 846V844H20V846V848H579V846ZM0 826H2V562H0H-2V826H0ZM20 542V544H576V542V540H20V542ZM596 522H598V448H596H594V522H596ZM576 428V426H20V428V430H576V428ZM0 408H2V124H0H-2V408H0ZM20 104V106H579V104V102H20V104ZM599 84H601V20H599H597V84H599ZM619 0V2H1220V0V-2H619V0ZM1240 20H1238V204H1240H1242V20H1240ZM1220 0V2C1229.94 2 1238 10.0589 1238 20H1240H1242C1242 7.84974 1232.15 -2 1220 -2V0ZM599 20H601C601 10.0589 609.059 2 619 2V0V-2C606.85 -2 597 7.84974 597 20H599ZM579 104V106C591.15 106 601 96.1503 601 84H599H597C597 93.9411 588.941 102 579 102V104ZM0 124H2C2 114.059 10.0589 106 20 106V104V102C7.84973 102 -2 111.85 -2 124H0ZM20 428V426C10.0589 426 2 417.941 2 408H0H-2C-2 420.15 7.84974 430 20 430V428ZM596 448H598C598 435.85 588.15 426 576 426V428V430C585.941 430 594 438.059 594 448H596ZM576 542V544C588.15 544 598 534.15 598 522H596H594C594 531.941 585.941 540 576 540V542ZM0 562H2C2 552.059 10.0589 544 20 544V542V540C7.84974 540 -2 549.85 -2 562H0ZM20 846V844C10.0589 844 2 835.941 2 826H0H-2C-2 838.15 7.84973 848 20 848V846ZM599 866H601C601 853.85 591.15 844 579 844V846V848C588.941 848 597 856.059 597 866H599ZM619 1050V1048C609.059 1048 601 1039.94 601 1030H599H597C597 1042.15 606.85 1052 619 1052V1050ZM1240 1030H1238C1238 1039.94 1229.94 1048 1220 1048V1050V1052C1232.15 1052 1242 1042.15 1242 1030H1240ZM1220 766V768C1229.94 768 1238 776.059 1238 786H1240H1242C1242 773.85 1232.15 764 1220 764V766ZM641 746H639C639 758.15 648.85 768 661 768V766V764C651.059 764 643 755.941 643 746H641ZM661 634V632C648.85 632 639 641.85 639 654H641H643C643 644.059 651.059 636 661 636V634ZM1240 614H1238C1238 623.941 1229.94 632 1220 632V634V636C1232.15 636 1242 626.15 1242 614H1240ZM1220 348V350C1229.94 350 1238 358.059 1238 368H1240H1242C1242 355.85 1232.15 346 1220 346V348ZM641 328H639C639 340.15 648.85 350 661 350V348V346C651.059 346 643 337.941 643 328H641ZM661 224V222C648.85 222 639 231.85 639 244H641H643C643 234.059 651.059 226 661 226V224ZM1220 224V226C1232.15 226 1242 216.15 1242 204H1240H1238C1238 213.941 1229.94 222 1220 222V224Z" fill="#D7D3E3" mask="url(#path-1-inside-1_116_1343)"/>
</svg>
