<svg width="281" height="249" viewBox="0 0 281 249" fill="none" xmlns="http://www.w3.org/2000/svg">
<circle cx="141.547" cy="131.547" r="93.547" stroke="#AAD5A0" stroke-width="30"/>
<path d="M235.094 131.547C235.094 119.262 232.674 107.098 227.973 95.7481C223.272 84.3985 216.381 74.0859 207.695 65.3993C199.008 56.7126 188.696 49.822 177.346 45.1208C165.996 40.4197 153.832 38 141.547 38C129.262 38 117.098 40.4197 105.748 45.1208C94.3985 49.822 84.0859 56.7126 75.3993 65.3993C66.7126 74.0859 59.822 84.3985 55.1208 95.7481C50.4197 107.098 48 119.262 48 131.547" stroke="#F063A7" stroke-width="30" stroke-linecap="round"/>
<path d="M141.547 225.094C116.737 225.094 92.9428 215.238 75.3993 197.695C57.8558 180.151 48 156.357 48 131.547C48 106.737 57.8558 82.9428 75.3993 65.3993C92.9428 47.8558 116.737 38 141.547 38" stroke="url(#paint0_linear_143_585)" stroke-width="30" stroke-linecap="round"/>
<circle cx="235.094" cy="131.547" r="11.906" stroke="white" stroke-width="2"/>
<path d="M141.547 97.53L151.752 121.342L175.564 131.547L151.752 141.752L141.547 165.564L131.342 141.752L107.53 131.547L131.342 121.342L141.547 97.53Z" fill="white"/>
<path d="M140.612 80.6307H142.484V88.4187H140.612V80.6307Z" fill="white"/>
<path d="M138.725 175.879H144.665V177.211H140.597V178.999H144.269V180.331H140.597V182.335H144.785V183.667H138.725V175.879Z" fill="white"/>
<path d="M90.2572 128.255H92.1532L95.9212 133.571V128.255H97.5892V136.043H95.6932L91.9252 130.643V136.043H90.2572V128.255Z" fill="white"/>
<path d="M188.892 136.163C188.148 136.163 187.228 136.091 186.132 135.947V134.519C187.492 134.727 188.42 134.831 188.916 134.831C189.956 134.831 190.476 134.563 190.476 134.027V133.523C190.476 133.267 190.4 133.071 190.248 132.935C190.104 132.799 189.84 132.731 189.456 132.731H188.544C186.832 132.731 185.976 132.051 185.976 130.691V130.115C185.976 129.435 186.26 128.935 186.828 128.615C187.396 128.295 188.296 128.135 189.528 128.135C190.168 128.135 190.98 128.187 191.964 128.291V129.683C190.756 129.539 189.924 129.467 189.468 129.467C188.836 129.467 188.412 129.519 188.196 129.623C187.964 129.735 187.848 129.911 187.848 130.151V130.703C187.848 131.111 188.192 131.315 188.88 131.315H189.816C190.704 131.315 191.348 131.479 191.748 131.807C192.148 132.135 192.348 132.635 192.348 133.307V133.823C192.348 134.751 192.016 135.379 191.352 135.707C191.032 135.875 190.676 135.991 190.284 136.055C189.9 136.127 189.436 136.163 188.892 136.163Z" fill="white"/>
<path d="M161.029 109.177H158.629V107.845H165.289V109.177H162.901V115.633H161.029V109.177Z" fill="white"/>
<path d="M118.315 148.665H124.375V149.997H120.187V151.905H123.979V153.237H120.187V156.453H118.315V148.665Z" fill="white"/>
<path d="M161.133 156.573C160.589 156.573 160.049 156.533 159.513 156.453V155.085C160.081 155.189 160.573 155.241 160.989 155.241C161.621 155.241 161.937 154.957 161.937 154.389V148.665H163.809V154.329C163.809 155.145 163.589 155.725 163.149 156.069C162.709 156.405 162.037 156.573 161.133 156.573Z" fill="white"/>
<path d="M118.215 107.845H121.335C122.095 107.845 122.695 107.897 123.135 108.001C123.583 108.105 123.907 108.289 124.107 108.553C124.315 108.809 124.419 109.169 124.419 109.633V111.109C124.419 111.621 124.307 112.021 124.083 112.309C123.867 112.597 123.519 112.801 123.039 112.921C122.567 113.041 121.927 113.101 121.119 113.101H120.087V115.633H118.215V107.845ZM121.275 111.817C121.763 111.817 122.107 111.761 122.307 111.649C122.507 111.529 122.607 111.329 122.607 111.049V109.801C122.607 109.545 122.511 109.377 122.319 109.297C122.135 109.217 121.779 109.177 121.251 109.177H120.087V111.817H121.275Z" fill="white"/>
<path d="M31.5 3L40.05 22.95L60 31.5L40.05 40.05L31.5 60L22.95 40.05L3 31.5L22.95 22.95L31.5 3Z" stroke="white" stroke-width="2"/>
<path d="M262.5 215L267.15 225.85L278 230.5L267.15 235.15L262.5 246L257.85 235.15L247 230.5L257.85 225.85L262.5 215Z" stroke="white" stroke-width="2"/>
<defs>
<linearGradient id="paint0_linear_143_585" x1="141.547" y1="64.3632" x2="147.5" y2="199.581" gradientUnits="userSpaceOnUse">
<stop stop-color="#F063A7"/>
<stop offset="1" stop-color="#AAD5A0"/>
</linearGradient>
</defs>
</svg>
