<svg width="646" height="510" viewBox="0 0 646 510" fill="none" xmlns="http://www.w3.org/2000/svg">
<g clip-path="url(#clip0_112_1052)">
<mask id="mask0_112_1052" style="mask-type:alpha" maskUnits="userSpaceOnUse" x="190" y="0" width="130" height="75">
<path d="M316.249 59.7669C317.462 60.4251 318.98 59.9748 319.638 58.761C320.296 57.5473 319.846 56.0298 318.632 55.3716L316.249 59.7669ZM289.668 52.413C288.346 52.8115 287.597 54.2062 287.996 55.5282C288.394 56.8501 289.789 57.5987 291.111 57.2002L289.668 52.413ZM313.379 44.1917C314.733 44.4624 316.05 43.5842 316.32 42.2303C316.591 40.8764 315.713 39.5594 314.359 39.2887L313.379 44.1917ZM298.785 42.521L298.047 40.1324L298.047 40.1325L298.785 42.521ZM289.294 44.3044C288.148 45.0744 287.843 46.6277 288.613 47.7738C289.383 48.9199 290.936 49.2248 292.082 48.4548L289.294 44.3044ZM191.368 54.7072C190.154 55.3654 189.704 56.8829 190.362 58.0967C191.02 59.3104 192.538 59.7607 193.751 59.1025L191.368 54.7072ZM218.887 56.536C220.209 56.9342 221.603 56.1853 222.002 54.8632C222.4 53.5412 221.651 52.1466 220.329 51.7485L218.887 56.536ZM195.641 38.6243C194.287 38.895 193.409 40.2119 193.68 41.5659C193.951 42.9198 195.268 43.7979 196.622 43.5273L195.641 38.6243ZM211.213 41.8566L211.951 39.4681L211.95 39.4679L211.213 41.8566ZM217.916 47.7911C219.063 48.5605 220.616 48.2547 221.385 47.1082C222.154 45.9617 221.849 44.4086 220.702 43.6393L217.916 47.7911ZM239.751 66.8771C240.658 65.8358 240.549 64.2566 239.507 63.3499C238.466 62.4432 236.887 62.5523 235.98 63.5936L239.751 66.8771ZM205.944 60.8993C205.243 59.7099 203.71 59.3141 202.521 60.0152C201.331 60.7164 200.935 62.249 201.636 63.4384L205.944 60.8993ZM272.728 63.5963C271.823 62.5537 270.244 62.4423 269.202 63.3475C268.159 64.2527 268.048 65.8317 268.953 66.8743L272.728 63.5963ZM306.974 63.4362C307.674 62.2461 307.277 60.7138 306.087 60.0139C304.897 59.314 303.364 59.7114 302.664 60.9016L306.974 63.4362ZM248.175 30.5789H245.675C245.675 34.3922 243.383 36.3214 241.816 36.3214V38.8214V41.3214C247.273 41.3214 250.675 35.87 250.675 30.5789H248.175ZM241.816 38.8214V36.3214C240.249 36.3214 237.957 34.3922 237.957 30.5789H235.457H232.957C232.957 35.87 236.359 41.3214 241.816 41.3214V38.8214ZM235.457 30.5789H237.957C237.957 26.7656 240.249 24.8364 241.816 24.8364V22.3364V19.8364C236.359 19.8364 232.957 25.2878 232.957 30.5789H235.457ZM241.816 22.3364V24.8364C243.383 24.8364 245.675 26.7656 245.675 30.5789H248.175H250.675C250.675 25.2878 247.273 19.8364 241.816 19.8364V22.3364ZM273.608 30.5789L271.108 30.5789C271.108 34.3922 268.816 36.3214 267.249 36.3214V38.8214V41.3214C272.706 41.3214 276.108 35.87 276.108 30.5789H273.608ZM267.249 38.8214V36.3214C265.682 36.3214 263.39 34.3922 263.39 30.5789H260.89H258.39C258.39 35.87 261.792 41.3214 267.249 41.3214V38.8214ZM260.89 30.5789H263.39C263.39 26.7656 265.682 24.8364 267.249 24.8364V22.3364V19.8364C261.792 19.8364 258.39 25.2878 258.39 30.5789H260.89ZM267.249 22.3364V24.8364C268.816 24.8364 271.108 26.7656 271.108 30.5789L273.608 30.5789H276.108C276.108 25.2878 272.706 19.8364 267.249 19.8364V22.3364ZM317.441 57.5692L318.632 55.3716C313.271 52.4639 307.123 50.8103 300.599 50.8103V53.3103V55.8103C306.269 55.8103 311.6 57.2458 316.249 59.7669L317.441 57.5692ZM300.599 53.3103V50.8103C296.804 50.8103 293.131 51.3691 289.668 52.413L290.389 54.8066L291.111 57.2002C294.109 56.2964 297.296 55.8103 300.599 55.8103V53.3103ZM313.869 41.7402L314.359 39.2887C309.105 38.2384 303.52 38.4417 298.047 40.1324L298.785 42.521L299.522 44.9097C304.179 43.4714 308.918 43.3 313.379 44.1917L313.869 41.7402ZM298.785 42.521L298.047 40.1325C294.863 41.1163 291.929 42.5341 289.294 44.3044L290.688 46.3796L292.082 48.4548C294.316 46.9543 296.808 45.7485 299.523 44.9096L298.785 42.521ZM192.56 56.9049L193.751 59.1025C198.4 56.5813 203.728 55.1459 209.398 55.1459V52.6459V50.1459C202.874 50.1459 196.729 51.7997 191.368 54.7072L192.56 56.9049ZM209.398 52.6459V55.1459C212.701 55.1459 215.885 55.6319 218.887 56.536L219.608 54.1422L220.329 51.7485C216.864 50.7048 213.194 50.1459 209.398 50.1459V52.6459ZM196.131 41.0758L196.622 43.5273C201.082 42.6356 205.818 42.807 210.475 44.2452L211.213 41.8566L211.95 39.4679C206.477 37.7773 200.896 37.5739 195.641 38.6243L196.131 41.0758ZM211.213 41.8566L210.474 44.2451C213.188 45.0839 215.678 46.2896 217.916 47.7911L219.309 45.7152L220.702 43.6393C218.066 41.87 215.135 40.4521 211.951 39.4681L211.213 41.8566ZM237.866 65.2353L235.98 63.5936C232.599 67.4769 227.569 69.9443 221.934 69.9443V72.4443V74.9443C229.057 74.9443 235.448 71.8183 239.751 66.8771L237.866 65.2353ZM221.934 72.4443V69.9443C215.087 69.9443 209.125 66.2958 205.944 60.8993L203.79 62.1689L201.636 63.4384C205.696 70.3248 213.276 74.9443 221.934 74.9443V72.4443ZM270.841 65.2353L268.953 66.8743C273.243 71.8162 279.621 74.9443 286.727 74.9443V72.4443V69.9443C281.114 69.9443 276.099 67.479 272.728 63.5963L270.841 65.2353ZM286.727 72.4443V74.9443C295.365 74.9443 302.925 70.3214 306.974 63.4362L304.819 62.1689L302.664 60.9016C299.49 66.2992 293.547 69.9443 286.727 69.9443V72.4443Z" fill="#E85DA0"/>
<path d="M283.467 37.9555C283.467 39.3362 284.586 40.4555 285.967 40.4555C287.348 40.4555 288.467 39.3362 288.467 37.9555H283.467ZM220.145 37.9555C220.145 39.3362 221.264 40.4555 222.645 40.4555C224.026 40.4555 225.145 39.3362 225.145 37.9555H220.145ZM283.393 2.62899L283.709 0.149057L283.709 0.148973L283.393 2.62899ZM291.834 11.0248L294.318 10.7447L294.318 10.7434L291.834 11.0248ZM224.73 2.62899L224.418 0.148463L224.418 0.148538L224.73 2.62899ZM216.175 11.0248L213.691 10.7401L213.691 10.7406L216.175 11.0248ZM285.967 37.9555H288.467C288.467 19.112 273.167 3.84564 254.306 3.84564V6.34564V8.84564C270.414 8.84564 283.467 21.8814 283.467 37.9555H285.967ZM254.306 6.34564V3.84564C235.445 3.84564 220.145 19.115 220.145 37.9555H222.645H225.145C225.145 21.8841 238.199 8.84564 254.306 8.84564V6.34564ZM271.913 11.8028L274.378 12.2177C275.171 7.5032 279.334 4.63284 283.078 5.10901L283.393 2.62899L283.709 0.148973C277.095 -0.692291 270.65 4.23973 269.447 11.3879L271.913 11.8028ZM283.393 2.62899L283.077 5.10893C286.251 5.51346 289 8.21913 289.35 11.3062L291.834 11.0248L294.318 10.7434C293.695 5.24442 289.045 0.829134 283.709 0.149057L283.393 2.62899ZM291.834 11.0248L289.35 11.3049C289.762 14.9614 286.728 19.1177 281.813 19.6675L282.091 22.152L282.369 24.6365C289.739 23.8121 295.072 17.4289 294.318 10.7447L291.834 11.0248ZM236.364 11.8028L238.828 11.3821C237.604 4.20981 231.069 -0.686539 224.418 0.148463L224.73 2.62899L225.041 5.10952C228.884 4.62709 233.099 7.53313 233.9 12.2234L236.364 11.8028ZM224.73 2.62899L224.418 0.148538C219.047 0.824019 214.324 5.21934 213.691 10.7401L216.175 11.0248L218.659 11.3094C219.01 8.2442 221.789 5.51858 225.042 5.10945L224.73 2.62899ZM216.175 11.0248L213.691 10.7406C212.923 17.4585 218.352 23.8176 225.778 24.6369L226.052 22.152L226.326 19.6671C221.296 19.1121 218.244 14.9318 218.659 11.309L216.175 11.0248Z" fill="#E85DA0"/>
<path d="M254.335 46.4594C252.554 46.4395 245.564 46.3629 244.694 49.0999C243.841 51.7774 248.832 57.2572 254.414 57.3282C259.92 57.3992 265.036 52.2005 264.288 49.4889C263.48 46.5616 255.822 46.4764 254.335 46.4622V46.4594Z" fill="#E85DA0" stroke="#E85DA0" stroke-width="2" stroke-miterlimit="10"/>
</mask>
<g mask="url(#mask0_112_1052)">
<rect x="190" width="130" height="75" fill="#D7D3E3" fill-opacity="0.7"/>
</g>
<mask id="mask1_112_1052" style="mask-type:alpha" maskUnits="userSpaceOnUse" x="190" y="270" width="130" height="75">
<path d="M316.249 329.767C317.462 330.425 318.98 329.975 319.638 328.761C320.296 327.547 319.846 326.03 318.632 325.372L316.249 329.767ZM289.668 322.413C288.346 322.812 287.597 324.206 287.996 325.528C288.394 326.85 289.789 327.599 291.111 327.2L289.668 322.413ZM313.379 314.192C314.733 314.462 316.05 313.584 316.32 312.23C316.591 310.876 315.713 309.559 314.359 309.289L313.379 314.192ZM298.785 312.521L298.047 310.132L298.047 310.132L298.785 312.521ZM289.294 314.304C288.148 315.074 287.843 316.628 288.613 317.774C289.383 318.92 290.936 319.225 292.082 318.455L289.294 314.304ZM191.368 324.707C190.154 325.365 189.704 326.883 190.362 328.097C191.02 329.31 192.538 329.761 193.751 329.103L191.368 324.707ZM218.887 326.536C220.209 326.934 221.603 326.185 222.002 324.863C222.4 323.541 221.651 322.147 220.329 321.748L218.887 326.536ZM195.641 308.624C194.287 308.895 193.409 310.212 193.68 311.566C193.951 312.92 195.268 313.798 196.622 313.527L195.641 308.624ZM211.213 311.857L211.951 309.468L211.95 309.468L211.213 311.857ZM217.916 317.791C219.063 318.56 220.616 318.255 221.385 317.108C222.154 315.962 221.849 314.409 220.702 313.639L217.916 317.791ZM239.751 336.877C240.658 335.836 240.549 334.257 239.507 333.35C238.466 332.443 236.887 332.552 235.98 333.594L239.751 336.877ZM205.944 330.899C205.243 329.71 203.71 329.314 202.521 330.015C201.331 330.716 200.935 332.249 201.636 333.438L205.944 330.899ZM272.728 333.596C271.823 332.554 270.244 332.442 269.202 333.348C268.159 334.253 268.048 335.832 268.953 336.874L272.728 333.596ZM306.974 333.436C307.674 332.246 307.277 330.714 306.087 330.014C304.897 329.314 303.364 329.711 302.664 330.902L306.974 333.436ZM248.175 300.579H245.675C245.675 304.392 243.383 306.321 241.816 306.321V308.821V311.321C247.273 311.321 250.675 305.87 250.675 300.579H248.175ZM241.816 308.821V306.321C240.249 306.321 237.957 304.392 237.957 300.579H235.457H232.957C232.957 305.87 236.359 311.321 241.816 311.321V308.821ZM235.457 300.579H237.957C237.957 296.766 240.249 294.836 241.816 294.836V292.336V289.836C236.359 289.836 232.957 295.288 232.957 300.579H235.457ZM241.816 292.336V294.836C243.383 294.836 245.675 296.766 245.675 300.579H248.175H250.675C250.675 295.288 247.273 289.836 241.816 289.836V292.336ZM273.608 300.579H271.108C271.108 304.392 268.816 306.321 267.249 306.321V308.821V311.321C272.706 311.321 276.108 305.87 276.108 300.579H273.608ZM267.249 308.821V306.321C265.682 306.321 263.39 304.392 263.39 300.579H260.89H258.39C258.39 305.87 261.792 311.321 267.249 311.321V308.821ZM260.89 300.579H263.39C263.39 296.766 265.682 294.836 267.249 294.836V292.336V289.836C261.792 289.836 258.39 295.288 258.39 300.579H260.89ZM267.249 292.336V294.836C268.816 294.836 271.108 296.766 271.108 300.579H273.608H276.108C276.108 295.288 272.706 289.836 267.249 289.836V292.336ZM317.441 327.569L318.632 325.372C313.271 322.464 307.123 320.81 300.599 320.81V323.31V325.81C306.269 325.81 311.6 327.246 316.249 329.767L317.441 327.569ZM300.599 323.31V320.81C296.804 320.81 293.131 321.369 289.668 322.413L290.389 324.807L291.111 327.2C294.109 326.296 297.296 325.81 300.599 325.81V323.31ZM313.869 311.74L314.359 309.289C309.105 308.238 303.52 308.442 298.047 310.132L298.785 312.521L299.522 314.91C304.179 313.471 308.918 313.3 313.379 314.192L313.869 311.74ZM298.785 312.521L298.047 310.132C294.863 311.116 291.929 312.534 289.294 314.304L290.688 316.38L292.082 318.455C294.316 316.954 296.808 315.749 299.523 314.91L298.785 312.521ZM192.56 326.905L193.751 329.103C198.4 326.581 203.728 325.146 209.398 325.146V322.646V320.146C202.874 320.146 196.729 321.8 191.368 324.707L192.56 326.905ZM209.398 322.646V325.146C212.701 325.146 215.885 325.632 218.887 326.536L219.608 324.142L220.329 321.748C216.864 320.705 213.194 320.146 209.398 320.146V322.646ZM196.131 311.076L196.622 313.527C201.082 312.636 205.818 312.807 210.475 314.245L211.213 311.857L211.95 309.468C206.477 307.777 200.896 307.574 195.641 308.624L196.131 311.076ZM211.213 311.857L210.474 314.245C213.188 315.084 215.678 316.29 217.916 317.791L219.309 315.715L220.702 313.639C218.066 311.87 215.135 310.452 211.951 309.468L211.213 311.857ZM237.866 335.235L235.98 333.594C232.599 337.477 227.569 339.944 221.934 339.944V342.444V344.944C229.057 344.944 235.448 341.818 239.751 336.877L237.866 335.235ZM221.934 342.444V339.944C215.087 339.944 209.125 336.296 205.944 330.899L203.79 332.169L201.636 333.438C205.696 340.325 213.276 344.944 221.934 344.944V342.444ZM270.841 335.235L268.953 336.874C273.243 341.816 279.621 344.944 286.727 344.944V342.444V339.944C281.114 339.944 276.099 337.479 272.728 333.596L270.841 335.235ZM286.727 342.444V344.944C295.365 344.944 302.925 340.321 306.974 333.436L304.819 332.169L302.664 330.902C299.49 336.299 293.547 339.944 286.727 339.944V342.444Z" fill="#E85DA0"/>
<path d="M283.467 307.956C283.467 309.336 284.586 310.456 285.967 310.456C287.348 310.456 288.467 309.336 288.467 307.956H283.467ZM220.145 307.956C220.145 309.336 221.264 310.456 222.645 310.456C224.026 310.456 225.145 309.336 225.145 307.956H220.145ZM283.393 272.629L283.709 270.149L283.709 270.149L283.393 272.629ZM291.834 281.025L294.318 280.745L294.318 280.743L291.834 281.025ZM224.73 272.629L224.418 270.148L224.418 270.149L224.73 272.629ZM216.175 281.025L213.691 280.74L213.691 280.741L216.175 281.025ZM285.967 307.956H288.467C288.467 289.112 273.167 273.846 254.306 273.846V276.346V278.846C270.414 278.846 283.467 291.881 283.467 307.956H285.967ZM254.306 276.346V273.846C235.445 273.846 220.145 289.115 220.145 307.956H222.645H225.145C225.145 291.884 238.199 278.846 254.306 278.846V276.346ZM271.913 281.803L274.378 282.218C275.171 277.503 279.334 274.633 283.078 275.109L283.393 272.629L283.709 270.149C277.095 269.308 270.65 274.24 269.447 281.388L271.913 281.803ZM283.393 272.629L283.077 275.109C286.251 275.513 289 278.219 289.35 281.306L291.834 281.025L294.318 280.743C293.695 275.244 289.045 270.829 283.709 270.149L283.393 272.629ZM291.834 281.025L289.35 281.305C289.762 284.961 286.728 289.118 281.813 289.667L282.091 292.152L282.369 294.636C289.739 293.812 295.072 287.429 294.318 280.745L291.834 281.025ZM236.364 281.803L238.828 281.382C237.604 274.21 231.069 269.313 224.418 270.148L224.73 272.629L225.041 275.11C228.884 274.627 233.099 277.533 233.9 282.223L236.364 281.803ZM224.73 272.629L224.418 270.149C219.047 270.824 214.324 275.219 213.691 280.74L216.175 281.025L218.659 281.309C219.01 278.244 221.789 275.519 225.042 275.109L224.73 272.629ZM216.175 281.025L213.691 280.741C212.923 287.459 218.352 293.818 225.778 294.637L226.052 292.152L226.326 289.667C221.296 289.112 218.244 284.932 218.659 281.309L216.175 281.025Z" fill="#E85DA0"/>
<path d="M254.335 316.459C252.554 316.44 245.564 316.363 244.694 319.1C243.841 321.777 248.832 327.257 254.414 327.328C259.92 327.399 265.036 322.2 264.288 319.489C263.48 316.562 255.822 316.476 254.335 316.462V316.459Z" fill="#E85DA0" stroke="#E85DA0" stroke-width="2" stroke-miterlimit="10"/>
</mask>
<g mask="url(#mask1_112_1052)">
<rect x="190" y="270" width="130" height="75" fill="#D7D3E3" fill-opacity="0.7"/>
</g>
<mask id="mask2_112_1052" style="mask-type:alpha" maskUnits="userSpaceOnUse" x="380" y="135" width="130" height="75">
<path d="M506.249 194.767C507.462 195.425 508.98 194.975 509.638 193.761C510.296 192.547 509.846 191.03 508.632 190.372L506.249 194.767ZM479.668 187.413C478.346 187.812 477.597 189.206 477.996 190.528C478.394 191.85 479.789 192.599 481.111 192.2L479.668 187.413ZM503.379 179.192C504.733 179.462 506.05 178.584 506.32 177.23C506.591 175.876 505.713 174.559 504.359 174.289L503.379 179.192ZM488.785 177.521L488.047 175.132L488.047 175.132L488.785 177.521ZM479.294 179.304C478.148 180.074 477.843 181.628 478.613 182.774C479.383 183.92 480.936 184.225 482.082 183.455L479.294 179.304ZM381.368 189.707C380.154 190.365 379.704 191.883 380.362 193.097C381.02 194.31 382.538 194.761 383.751 194.103L381.368 189.707ZM408.887 191.536C410.209 191.934 411.603 191.185 412.002 189.863C412.4 188.541 411.651 187.147 410.329 186.748L408.887 191.536ZM385.641 173.624C384.287 173.895 383.409 175.212 383.68 176.566C383.951 177.92 385.268 178.798 386.622 178.527L385.641 173.624ZM401.213 176.857L401.951 174.468L401.95 174.468L401.213 176.857ZM407.916 182.791C409.063 183.56 410.616 183.255 411.385 182.108C412.154 180.962 411.849 179.409 410.702 178.639L407.916 182.791ZM429.751 201.877C430.658 200.836 430.549 199.257 429.507 198.35C428.466 197.443 426.887 197.552 425.98 198.594L429.751 201.877ZM395.944 195.899C395.243 194.71 393.71 194.314 392.521 195.015C391.331 195.716 390.935 197.249 391.636 198.438L395.944 195.899ZM462.728 198.596C461.823 197.554 460.244 197.442 459.202 198.348C458.159 199.253 458.048 200.832 458.953 201.874L462.728 198.596ZM496.974 198.436C497.674 197.246 497.277 195.714 496.087 195.014C494.897 194.314 493.364 194.711 492.664 195.902L496.974 198.436ZM438.175 165.579H435.675C435.675 169.392 433.383 171.321 431.816 171.321V173.821V176.321C437.273 176.321 440.675 170.87 440.675 165.579H438.175ZM431.816 173.821V171.321C430.249 171.321 427.957 169.392 427.957 165.579H425.457H422.957C422.957 170.87 426.359 176.321 431.816 176.321V173.821ZM425.457 165.579H427.957C427.957 161.766 430.249 159.836 431.816 159.836V157.336V154.836C426.359 154.836 422.957 160.288 422.957 165.579H425.457ZM431.816 157.336V159.836C433.383 159.836 435.675 161.766 435.675 165.579H438.175H440.675C440.675 160.288 437.273 154.836 431.816 154.836V157.336ZM463.608 165.579H461.108C461.108 169.392 458.816 171.321 457.249 171.321V173.821V176.321C462.706 176.321 466.108 170.87 466.108 165.579H463.608ZM457.249 173.821V171.321C455.682 171.321 453.39 169.392 453.39 165.579H450.89H448.39C448.39 170.87 451.792 176.321 457.249 176.321V173.821ZM450.89 165.579H453.39C453.39 161.766 455.682 159.836 457.249 159.836V157.336V154.836C451.792 154.836 448.39 160.288 448.39 165.579H450.89ZM457.249 157.336V159.836C458.816 159.836 461.108 161.766 461.108 165.579H463.608H466.108C466.108 160.288 462.706 154.836 457.249 154.836V157.336ZM507.441 192.569L508.632 190.372C503.271 187.464 497.123 185.81 490.599 185.81V188.31V190.81C496.269 190.81 501.6 192.246 506.249 194.767L507.441 192.569ZM490.599 188.31V185.81C486.804 185.81 483.131 186.369 479.668 187.413L480.389 189.807L481.111 192.2C484.109 191.296 487.296 190.81 490.599 190.81V188.31ZM503.869 176.74L504.359 174.289C499.105 173.238 493.52 173.442 488.047 175.132L488.785 177.521L489.522 179.91C494.179 178.471 498.918 178.3 503.379 179.192L503.869 176.74ZM488.785 177.521L488.047 175.132C484.863 176.116 481.929 177.534 479.294 179.304L480.688 181.38L482.082 183.455C484.316 181.954 486.808 180.749 489.523 179.91L488.785 177.521ZM382.56 191.905L383.751 194.103C388.4 191.581 393.728 190.146 399.398 190.146V187.646V185.146C392.874 185.146 386.729 186.8 381.368 189.707L382.56 191.905ZM399.398 187.646V190.146C402.701 190.146 405.885 190.632 408.887 191.536L409.608 189.142L410.329 186.748C406.864 185.705 403.194 185.146 399.398 185.146V187.646ZM386.131 176.076L386.622 178.527C391.082 177.636 395.818 177.807 400.475 179.245L401.213 176.857L401.95 174.468C396.477 172.777 390.896 172.574 385.641 173.624L386.131 176.076ZM401.213 176.857L400.474 179.245C403.188 180.084 405.678 181.29 407.916 182.791L409.309 180.715L410.702 178.639C408.066 176.87 405.135 175.452 401.951 174.468L401.213 176.857ZM427.866 200.235L425.98 198.594C422.599 202.477 417.569 204.944 411.934 204.944V207.444V209.944C419.057 209.944 425.448 206.818 429.751 201.877L427.866 200.235ZM411.934 207.444V204.944C405.087 204.944 399.125 201.296 395.944 195.899L393.79 197.169L391.636 198.438C395.696 205.325 403.276 209.944 411.934 209.944V207.444ZM460.841 200.235L458.953 201.874C463.243 206.816 469.621 209.944 476.727 209.944V207.444V204.944C471.114 204.944 466.099 202.479 462.728 198.596L460.841 200.235ZM476.727 207.444V209.944C485.365 209.944 492.925 205.321 496.974 198.436L494.819 197.169L492.664 195.902C489.49 201.299 483.547 204.944 476.727 204.944V207.444Z" fill="#E85DA0"/>
<path d="M473.467 172.956C473.467 174.336 474.586 175.456 475.967 175.456C477.348 175.456 478.467 174.336 478.467 172.956H473.467ZM410.145 172.956C410.145 174.336 411.264 175.456 412.645 175.456C414.026 175.456 415.145 174.336 415.145 172.956H410.145ZM473.393 137.629L473.709 135.149L473.709 135.149L473.393 137.629ZM481.834 146.025L484.318 145.745L484.318 145.743L481.834 146.025ZM414.73 137.629L414.418 135.148L414.418 135.149L414.73 137.629ZM406.175 146.025L403.691 145.74L403.691 145.741L406.175 146.025ZM475.967 172.956H478.467C478.467 154.112 463.167 138.846 444.306 138.846V141.346V143.846C460.414 143.846 473.467 156.881 473.467 172.956H475.967ZM444.306 141.346V138.846C425.445 138.846 410.145 154.115 410.145 172.956H412.645H415.145C415.145 156.884 428.199 143.846 444.306 143.846V141.346ZM461.913 146.803L464.378 147.218C465.171 142.503 469.334 139.633 473.078 140.109L473.393 137.629L473.709 135.149C467.095 134.308 460.65 139.24 459.447 146.388L461.913 146.803ZM473.393 137.629L473.077 140.109C476.251 140.513 479 143.219 479.35 146.306L481.834 146.025L484.318 145.743C483.695 140.244 479.045 135.829 473.709 135.149L473.393 137.629ZM481.834 146.025L479.35 146.305C479.762 149.961 476.728 154.118 471.813 154.667L472.091 157.152L472.369 159.636C479.739 158.812 485.072 152.429 484.318 145.745L481.834 146.025ZM426.364 146.803L428.828 146.382C427.604 139.21 421.069 134.313 414.418 135.148L414.73 137.629L415.041 140.11C418.884 139.627 423.099 142.533 423.9 147.223L426.364 146.803ZM414.73 137.629L414.418 135.149C409.047 135.824 404.324 140.219 403.691 145.74L406.175 146.025L408.659 146.309C409.01 143.244 411.789 140.519 415.042 140.109L414.73 137.629ZM406.175 146.025L403.691 145.741C402.923 152.459 408.352 158.818 415.778 159.637L416.052 157.152L416.326 154.667C411.296 154.112 408.244 149.932 408.659 146.309L406.175 146.025Z" fill="#E85DA0"/>
<path d="M444.335 181.459C442.554 181.44 435.564 181.363 434.694 184.1C433.841 186.777 438.832 192.257 444.414 192.328C449.92 192.399 455.036 187.2 454.288 184.489C453.48 181.562 445.822 181.476 444.335 181.462V181.459Z" fill="#E85DA0" stroke="#E85DA0" stroke-width="2" stroke-miterlimit="10"/>
</mask>
<g mask="url(#mask2_112_1052)">
<rect x="380" y="135" width="130" height="75" fill="#D7D3E3" fill-opacity="0.7"/>
</g>
<mask id="mask3_112_1052" style="mask-type:alpha" maskUnits="userSpaceOnUse" x="380" y="405" width="130" height="75">
<path d="M506.249 464.767C507.462 465.425 508.98 464.975 509.638 463.761C510.296 462.547 509.846 461.03 508.632 460.372L506.249 464.767ZM479.668 457.413C478.346 457.812 477.597 459.206 477.996 460.528C478.394 461.85 479.789 462.599 481.111 462.2L479.668 457.413ZM503.379 449.192C504.733 449.462 506.05 448.584 506.32 447.23C506.591 445.876 505.713 444.559 504.359 444.289L503.379 449.192ZM488.785 447.521L488.047 445.132L488.047 445.132L488.785 447.521ZM479.294 449.304C478.148 450.074 477.843 451.628 478.613 452.774C479.383 453.92 480.936 454.225 482.082 453.455L479.294 449.304ZM381.368 459.707C380.154 460.365 379.704 461.883 380.362 463.097C381.02 464.31 382.538 464.761 383.751 464.103L381.368 459.707ZM408.887 461.536C410.209 461.934 411.603 461.185 412.002 459.863C412.4 458.541 411.651 457.147 410.329 456.748L408.887 461.536ZM385.641 443.624C384.287 443.895 383.409 445.212 383.68 446.566C383.951 447.92 385.268 448.798 386.622 448.527L385.641 443.624ZM401.213 446.857L401.951 444.468L401.95 444.468L401.213 446.857ZM407.916 452.791C409.063 453.56 410.616 453.255 411.385 452.108C412.154 450.962 411.849 449.409 410.702 448.639L407.916 452.791ZM429.751 471.877C430.658 470.836 430.549 469.257 429.507 468.35C428.466 467.443 426.887 467.552 425.98 468.594L429.751 471.877ZM395.944 465.899C395.243 464.71 393.71 464.314 392.521 465.015C391.331 465.716 390.935 467.249 391.636 468.438L395.944 465.899ZM462.728 468.596C461.823 467.554 460.244 467.442 459.202 468.348C458.159 469.253 458.048 470.832 458.953 471.874L462.728 468.596ZM496.974 468.436C497.674 467.246 497.277 465.714 496.087 465.014C494.897 464.314 493.364 464.711 492.664 465.902L496.974 468.436ZM438.175 435.579H435.675C435.675 439.392 433.383 441.321 431.816 441.321V443.821V446.321C437.273 446.321 440.675 440.87 440.675 435.579H438.175ZM431.816 443.821V441.321C430.249 441.321 427.957 439.392 427.957 435.579H425.457H422.957C422.957 440.87 426.359 446.321 431.816 446.321V443.821ZM425.457 435.579H427.957C427.957 431.766 430.249 429.836 431.816 429.836V427.336V424.836C426.359 424.836 422.957 430.288 422.957 435.579H425.457ZM431.816 427.336V429.836C433.383 429.836 435.675 431.766 435.675 435.579H438.175H440.675C440.675 430.288 437.273 424.836 431.816 424.836V427.336ZM463.608 435.579H461.108C461.108 439.392 458.816 441.321 457.249 441.321V443.821V446.321C462.706 446.321 466.108 440.87 466.108 435.579H463.608ZM457.249 443.821V441.321C455.682 441.321 453.39 439.392 453.39 435.579H450.89H448.39C448.39 440.87 451.792 446.321 457.249 446.321V443.821ZM450.89 435.579H453.39C453.39 431.766 455.682 429.836 457.249 429.836V427.336V424.836C451.792 424.836 448.39 430.288 448.39 435.579H450.89ZM457.249 427.336V429.836C458.816 429.836 461.108 431.766 461.108 435.579H463.608H466.108C466.108 430.288 462.706 424.836 457.249 424.836V427.336ZM507.441 462.569L508.632 460.372C503.271 457.464 497.123 455.81 490.599 455.81V458.31V460.81C496.269 460.81 501.6 462.246 506.249 464.767L507.441 462.569ZM490.599 458.31V455.81C486.804 455.81 483.131 456.369 479.668 457.413L480.389 459.807L481.111 462.2C484.109 461.296 487.296 460.81 490.599 460.81V458.31ZM503.869 446.74L504.359 444.289C499.105 443.238 493.52 443.442 488.047 445.132L488.785 447.521L489.522 449.91C494.179 448.471 498.918 448.3 503.379 449.192L503.869 446.74ZM488.785 447.521L488.047 445.132C484.863 446.116 481.929 447.534 479.294 449.304L480.688 451.38L482.082 453.455C484.316 451.954 486.808 450.749 489.523 449.91L488.785 447.521ZM382.56 461.905L383.751 464.103C388.4 461.581 393.728 460.146 399.398 460.146V457.646V455.146C392.874 455.146 386.729 456.8 381.368 459.707L382.56 461.905ZM399.398 457.646V460.146C402.701 460.146 405.885 460.632 408.887 461.536L409.608 459.142L410.329 456.748C406.864 455.705 403.194 455.146 399.398 455.146V457.646ZM386.131 446.076L386.622 448.527C391.082 447.636 395.818 447.807 400.475 449.245L401.213 446.857L401.95 444.468C396.477 442.777 390.896 442.574 385.641 443.624L386.131 446.076ZM401.213 446.857L400.474 449.245C403.188 450.084 405.678 451.29 407.916 452.791L409.309 450.715L410.702 448.639C408.066 446.87 405.135 445.452 401.951 444.468L401.213 446.857ZM427.866 470.235L425.98 468.594C422.599 472.477 417.569 474.944 411.934 474.944V477.444V479.944C419.057 479.944 425.448 476.818 429.751 471.877L427.866 470.235ZM411.934 477.444V474.944C405.087 474.944 399.125 471.296 395.944 465.899L393.79 467.169L391.636 468.438C395.696 475.325 403.276 479.944 411.934 479.944V477.444ZM460.841 470.235L458.953 471.874C463.243 476.816 469.621 479.944 476.727 479.944V477.444V474.944C471.114 474.944 466.099 472.479 462.728 468.596L460.841 470.235ZM476.727 477.444V479.944C485.365 479.944 492.925 475.321 496.974 468.436L494.819 467.169L492.664 465.902C489.49 471.299 483.547 474.944 476.727 474.944V477.444Z" fill="#E85DA0"/>
<path d="M473.467 442.956C473.467 444.336 474.586 445.456 475.967 445.456C477.348 445.456 478.467 444.336 478.467 442.956H473.467ZM410.145 442.956C410.145 444.336 411.264 445.456 412.645 445.456C414.026 445.456 415.145 444.336 415.145 442.956H410.145ZM473.393 407.629L473.709 405.149L473.709 405.149L473.393 407.629ZM481.834 416.025L484.318 415.745L484.318 415.743L481.834 416.025ZM414.73 407.629L414.418 405.148L414.418 405.149L414.73 407.629ZM406.175 416.025L403.691 415.74L403.691 415.741L406.175 416.025ZM475.967 442.956H478.467C478.467 424.112 463.167 408.846 444.306 408.846V411.346V413.846C460.414 413.846 473.467 426.881 473.467 442.956H475.967ZM444.306 411.346V408.846C425.445 408.846 410.145 424.115 410.145 442.956H412.645H415.145C415.145 426.884 428.199 413.846 444.306 413.846V411.346ZM461.913 416.803L464.378 417.218C465.171 412.503 469.334 409.633 473.078 410.109L473.393 407.629L473.709 405.149C467.095 404.308 460.65 409.24 459.447 416.388L461.913 416.803ZM473.393 407.629L473.077 410.109C476.251 410.513 479 413.219 479.35 416.306L481.834 416.025L484.318 415.743C483.695 410.244 479.045 405.829 473.709 405.149L473.393 407.629ZM481.834 416.025L479.35 416.305C479.762 419.961 476.728 424.118 471.813 424.667L472.091 427.152L472.369 429.636C479.739 428.812 485.072 422.429 484.318 415.745L481.834 416.025ZM426.364 416.803L428.828 416.382C427.604 409.21 421.069 404.313 414.418 405.148L414.73 407.629L415.041 410.11C418.884 409.627 423.099 412.533 423.9 417.223L426.364 416.803ZM414.73 407.629L414.418 405.149C409.047 405.824 404.324 410.219 403.691 415.74L406.175 416.025L408.659 416.309C409.01 413.244 411.789 410.519 415.042 410.109L414.73 407.629ZM406.175 416.025L403.691 415.741C402.923 422.459 408.352 428.818 415.778 429.637L416.052 427.152L416.326 424.667C411.296 424.112 408.244 419.932 408.659 416.309L406.175 416.025Z" fill="#E85DA0"/>
<path d="M444.335 451.459C442.554 451.44 435.564 451.363 434.694 454.1C433.841 456.777 438.832 462.257 444.414 462.328C449.92 462.399 455.036 457.2 454.288 454.489C453.48 451.562 445.822 451.476 444.335 451.462V451.459Z" fill="#E85DA0" stroke="#E85DA0" stroke-width="2" stroke-miterlimit="10"/>
</mask>
<g mask="url(#mask3_112_1052)">
<rect x="380" y="405" width="130" height="75" fill="#D7D3E3" fill-opacity="0.7"/>
</g>
<mask id="mask4_112_1052" style="mask-type:alpha" maskUnits="userSpaceOnUse" x="570" y="0" width="130" height="75">
<path d="M696.249 59.7669C697.462 60.4251 698.98 59.9748 699.638 58.761C700.296 57.5473 699.846 56.0298 698.632 55.3716L696.249 59.7669ZM669.668 52.413C668.346 52.8115 667.597 54.2062 667.996 55.5282C668.394 56.8501 669.789 57.5987 671.111 57.2002L669.668 52.413ZM693.379 44.1917C694.733 44.4624 696.05 43.5842 696.32 42.2303C696.591 40.8764 695.713 39.5594 694.359 39.2887L693.379 44.1917ZM678.785 42.521L678.047 40.1324L678.047 40.1325L678.785 42.521ZM669.294 44.3044C668.148 45.0744 667.843 46.6277 668.613 47.7738C669.383 48.9199 670.936 49.2248 672.082 48.4548L669.294 44.3044ZM571.368 54.7072C570.154 55.3654 569.704 56.8829 570.362 58.0967C571.02 59.3104 572.538 59.7607 573.751 59.1025L571.368 54.7072ZM598.887 56.536C600.209 56.9342 601.603 56.1853 602.002 54.8632C602.4 53.5412 601.651 52.1466 600.329 51.7485L598.887 56.536ZM575.641 38.6243C574.287 38.895 573.409 40.2119 573.68 41.5659C573.951 42.9198 575.268 43.7979 576.622 43.5273L575.641 38.6243ZM591.213 41.8566L591.951 39.4681L591.95 39.4679L591.213 41.8566ZM597.916 47.7911C599.063 48.5605 600.616 48.2547 601.385 47.1082C602.154 45.9617 601.849 44.4086 600.702 43.6393L597.916 47.7911ZM619.751 66.8771C620.658 65.8358 620.549 64.2566 619.507 63.3499C618.466 62.4432 616.887 62.5523 615.98 63.5936L619.751 66.8771ZM585.944 60.8993C585.243 59.7099 583.71 59.3141 582.521 60.0152C581.331 60.7164 580.935 62.249 581.636 63.4384L585.944 60.8993ZM652.728 63.5963C651.823 62.5537 650.244 62.4423 649.202 63.3475C648.159 64.2527 648.048 65.8317 648.953 66.8743L652.728 63.5963ZM686.974 63.4362C687.674 62.2461 687.277 60.7138 686.087 60.0139C684.897 59.314 683.364 59.7114 682.664 60.9016L686.974 63.4362ZM628.175 30.5789H625.675C625.675 34.3922 623.383 36.3214 621.816 36.3214V38.8214V41.3214C627.273 41.3214 630.675 35.87 630.675 30.5789H628.175ZM621.816 38.8214V36.3214C620.249 36.3214 617.957 34.3922 617.957 30.5789H615.457H612.957C612.957 35.87 616.359 41.3214 621.816 41.3214V38.8214ZM615.457 30.5789H617.957C617.957 26.7656 620.249 24.8364 621.816 24.8364V22.3364V19.8364C616.359 19.8364 612.957 25.2878 612.957 30.5789H615.457ZM621.816 22.3364V24.8364C623.383 24.8364 625.675 26.7656 625.675 30.5789H628.175H630.675C630.675 25.2878 627.273 19.8364 621.816 19.8364V22.3364ZM653.608 30.5789L651.108 30.5789C651.108 34.3922 648.816 36.3214 647.249 36.3214V38.8214V41.3214C652.706 41.3214 656.108 35.87 656.108 30.5789H653.608ZM647.249 38.8214V36.3214C645.682 36.3214 643.39 34.3922 643.39 30.5789H640.89H638.39C638.39 35.87 641.792 41.3214 647.249 41.3214V38.8214ZM640.89 30.5789H643.39C643.39 26.7656 645.682 24.8364 647.249 24.8364V22.3364V19.8364C641.792 19.8364 638.39 25.2878 638.39 30.5789H640.89ZM647.249 22.3364V24.8364C648.816 24.8364 651.108 26.7656 651.108 30.5789L653.608 30.5789H656.108C656.108 25.2878 652.706 19.8364 647.249 19.8364V22.3364ZM697.441 57.5692L698.632 55.3716C693.271 52.4639 687.123 50.8103 680.599 50.8103V53.3103V55.8103C686.269 55.8103 691.6 57.2458 696.249 59.7669L697.441 57.5692ZM680.599 53.3103V50.8103C676.804 50.8103 673.131 51.3691 669.668 52.413L670.389 54.8066L671.111 57.2002C674.109 56.2964 677.296 55.8103 680.599 55.8103V53.3103ZM693.869 41.7402L694.359 39.2887C689.105 38.2384 683.52 38.4417 678.047 40.1324L678.785 42.521L679.522 44.9097C684.179 43.4714 688.918 43.3 693.379 44.1917L693.869 41.7402ZM678.785 42.521L678.047 40.1325C674.863 41.1163 671.929 42.5341 669.294 44.3044L670.688 46.3796L672.082 48.4548C674.316 46.9543 676.808 45.7485 679.523 44.9096L678.785 42.521ZM572.56 56.9049L573.751 59.1025C578.4 56.5813 583.728 55.1459 589.398 55.1459V52.6459V50.1459C582.874 50.1459 576.729 51.7997 571.368 54.7072L572.56 56.9049ZM589.398 52.6459V55.1459C592.701 55.1459 595.885 55.6319 598.887 56.536L599.608 54.1422L600.329 51.7485C596.864 50.7048 593.194 50.1459 589.398 50.1459V52.6459ZM576.131 41.0758L576.622 43.5273C581.082 42.6356 585.818 42.807 590.475 44.2452L591.213 41.8566L591.95 39.4679C586.477 37.7773 580.896 37.5739 575.641 38.6243L576.131 41.0758ZM591.213 41.8566L590.474 44.2451C593.188 45.0839 595.678 46.2896 597.916 47.7911L599.309 45.7152L600.702 43.6393C598.066 41.87 595.135 40.4521 591.951 39.4681L591.213 41.8566ZM617.866 65.2353L615.98 63.5936C612.599 67.4769 607.569 69.9443 601.934 69.9443V72.4443V74.9443C609.057 74.9443 615.448 71.8183 619.751 66.8771L617.866 65.2353ZM601.934 72.4443V69.9443C595.087 69.9443 589.125 66.2958 585.944 60.8993L583.79 62.1689L581.636 63.4384C585.696 70.3248 593.276 74.9443 601.934 74.9443V72.4443ZM650.841 65.2353L648.953 66.8743C653.243 71.8162 659.621 74.9443 666.727 74.9443V72.4443V69.9443C661.114 69.9443 656.099 67.479 652.728 63.5963L650.841 65.2353ZM666.727 72.4443V74.9443C675.365 74.9443 682.925 70.3214 686.974 63.4362L684.819 62.1689L682.664 60.9016C679.49 66.2992 673.547 69.9443 666.727 69.9443V72.4443Z" fill="#E85DA0"/>
<path d="M663.467 37.9555C663.467 39.3362 664.586 40.4555 665.967 40.4555C667.348 40.4555 668.467 39.3362 668.467 37.9555H663.467ZM600.145 37.9555C600.145 39.3362 601.264 40.4555 602.645 40.4555C604.026 40.4555 605.145 39.3362 605.145 37.9555H600.145ZM663.393 2.62899L663.709 0.149057L663.709 0.148973L663.393 2.62899ZM671.834 11.0248L674.318 10.7447L674.318 10.7434L671.834 11.0248ZM604.73 2.62899L604.418 0.148463L604.418 0.148538L604.73 2.62899ZM596.175 11.0248L593.691 10.7401L593.691 10.7406L596.175 11.0248ZM665.967 37.9555H668.467C668.467 19.112 653.167 3.84564 634.306 3.84564V6.34564V8.84564C650.414 8.84564 663.467 21.8814 663.467 37.9555H665.967ZM634.306 6.34564V3.84564C615.445 3.84564 600.145 19.115 600.145 37.9555H602.645H605.145C605.145 21.8841 618.199 8.84564 634.306 8.84564V6.34564ZM651.913 11.8028L654.378 12.2177C655.171 7.5032 659.334 4.63284 663.078 5.10901L663.393 2.62899L663.709 0.148973C657.095 -0.692291 650.65 4.23973 649.447 11.3879L651.913 11.8028ZM663.393 2.62899L663.077 5.10893C666.251 5.51346 669 8.21913 669.35 11.3062L671.834 11.0248L674.318 10.7434C673.695 5.24442 669.045 0.829134 663.709 0.149057L663.393 2.62899ZM671.834 11.0248L669.35 11.3049C669.762 14.9614 666.728 19.1177 661.813 19.6675L662.091 22.152L662.369 24.6365C669.739 23.8121 675.072 17.4289 674.318 10.7447L671.834 11.0248ZM616.364 11.8028L618.828 11.3821C617.604 4.20981 611.069 -0.686539 604.418 0.148463L604.73 2.62899L605.041 5.10952C608.884 4.62709 613.099 7.53313 613.9 12.2234L616.364 11.8028ZM604.73 2.62899L604.418 0.148538C599.047 0.824019 594.324 5.21934 593.691 10.7401L596.175 11.0248L598.659 11.3094C599.01 8.2442 601.789 5.51858 605.042 5.10945L604.73 2.62899ZM596.175 11.0248L593.691 10.7406C592.923 17.4585 598.352 23.8176 605.778 24.6369L606.052 22.152L606.326 19.6671C601.296 19.1121 598.244 14.9318 598.659 11.309L596.175 11.0248Z" fill="#E85DA0"/>
<path d="M634.335 46.4594C632.554 46.4395 625.564 46.3629 624.694 49.0999C623.841 51.7774 628.832 57.2572 634.414 57.3282C639.92 57.3992 645.036 52.2005 644.288 49.4889C643.48 46.5616 635.822 46.4764 634.335 46.4622V46.4594Z" fill="#E85DA0" stroke="#E85DA0" stroke-width="2" stroke-miterlimit="10"/>
</mask>
<g mask="url(#mask4_112_1052)">
<rect x="570" width="130" height="75" fill="#D7D3E3" fill-opacity="0.7"/>
</g>
<mask id="mask5_112_1052" style="mask-type:alpha" maskUnits="userSpaceOnUse" x="570" y="270" width="130" height="75">
<path d="M696.249 329.767C697.462 330.425 698.98 329.975 699.638 328.761C700.296 327.547 699.846 326.03 698.632 325.372L696.249 329.767ZM669.668 322.413C668.346 322.812 667.597 324.206 667.996 325.528C668.394 326.85 669.789 327.599 671.111 327.2L669.668 322.413ZM693.379 314.192C694.733 314.462 696.05 313.584 696.32 312.23C696.591 310.876 695.713 309.559 694.359 309.289L693.379 314.192ZM678.785 312.521L678.047 310.132L678.047 310.132L678.785 312.521ZM669.294 314.304C668.148 315.074 667.843 316.628 668.613 317.774C669.383 318.92 670.936 319.225 672.082 318.455L669.294 314.304ZM571.368 324.707C570.154 325.365 569.704 326.883 570.362 328.097C571.02 329.31 572.538 329.761 573.751 329.103L571.368 324.707ZM598.887 326.536C600.209 326.934 601.603 326.185 602.002 324.863C602.4 323.541 601.651 322.147 600.329 321.748L598.887 326.536ZM575.641 308.624C574.287 308.895 573.409 310.212 573.68 311.566C573.951 312.92 575.268 313.798 576.622 313.527L575.641 308.624ZM591.213 311.857L591.951 309.468L591.95 309.468L591.213 311.857ZM597.916 317.791C599.063 318.56 600.616 318.255 601.385 317.108C602.154 315.962 601.849 314.409 600.702 313.639L597.916 317.791ZM619.751 336.877C620.658 335.836 620.549 334.257 619.507 333.35C618.466 332.443 616.887 332.552 615.98 333.594L619.751 336.877ZM585.944 330.899C585.243 329.71 583.71 329.314 582.521 330.015C581.331 330.716 580.935 332.249 581.636 333.438L585.944 330.899ZM652.728 333.596C651.823 332.554 650.244 332.442 649.202 333.348C648.159 334.253 648.048 335.832 648.953 336.874L652.728 333.596ZM686.974 333.436C687.674 332.246 687.277 330.714 686.087 330.014C684.897 329.314 683.364 329.711 682.664 330.902L686.974 333.436ZM628.175 300.579H625.675C625.675 304.392 623.383 306.321 621.816 306.321V308.821V311.321C627.273 311.321 630.675 305.87 630.675 300.579H628.175ZM621.816 308.821V306.321C620.249 306.321 617.957 304.392 617.957 300.579H615.457H612.957C612.957 305.87 616.359 311.321 621.816 311.321V308.821ZM615.457 300.579H617.957C617.957 296.766 620.249 294.836 621.816 294.836V292.336V289.836C616.359 289.836 612.957 295.288 612.957 300.579H615.457ZM621.816 292.336V294.836C623.383 294.836 625.675 296.766 625.675 300.579H628.175H630.675C630.675 295.288 627.273 289.836 621.816 289.836V292.336ZM653.608 300.579H651.108C651.108 304.392 648.816 306.321 647.249 306.321V308.821V311.321C652.706 311.321 656.108 305.87 656.108 300.579H653.608ZM647.249 308.821V306.321C645.682 306.321 643.39 304.392 643.39 300.579H640.89H638.39C638.39 305.87 641.792 311.321 647.249 311.321V308.821ZM640.89 300.579H643.39C643.39 296.766 645.682 294.836 647.249 294.836V292.336V289.836C641.792 289.836 638.39 295.288 638.39 300.579H640.89ZM647.249 292.336V294.836C648.816 294.836 651.108 296.766 651.108 300.579H653.608H656.108C656.108 295.288 652.706 289.836 647.249 289.836V292.336ZM697.441 327.569L698.632 325.372C693.271 322.464 687.123 320.81 680.599 320.81V323.31V325.81C686.269 325.81 691.6 327.246 696.249 329.767L697.441 327.569ZM680.599 323.31V320.81C676.804 320.81 673.131 321.369 669.668 322.413L670.389 324.807L671.111 327.2C674.109 326.296 677.296 325.81 680.599 325.81V323.31ZM693.869 311.74L694.359 309.289C689.105 308.238 683.52 308.442 678.047 310.132L678.785 312.521L679.522 314.91C684.179 313.471 688.918 313.3 693.379 314.192L693.869 311.74ZM678.785 312.521L678.047 310.132C674.863 311.116 671.929 312.534 669.294 314.304L670.688 316.38L672.082 318.455C674.316 316.954 676.808 315.749 679.523 314.91L678.785 312.521ZM572.56 326.905L573.751 329.103C578.4 326.581 583.728 325.146 589.398 325.146V322.646V320.146C582.874 320.146 576.729 321.8 571.368 324.707L572.56 326.905ZM589.398 322.646V325.146C592.701 325.146 595.885 325.632 598.887 326.536L599.608 324.142L600.329 321.748C596.864 320.705 593.194 320.146 589.398 320.146V322.646ZM576.131 311.076L576.622 313.527C581.082 312.636 585.818 312.807 590.475 314.245L591.213 311.857L591.95 309.468C586.477 307.777 580.896 307.574 575.641 308.624L576.131 311.076ZM591.213 311.857L590.474 314.245C593.188 315.084 595.678 316.29 597.916 317.791L599.309 315.715L600.702 313.639C598.066 311.87 595.135 310.452 591.951 309.468L591.213 311.857ZM617.866 335.235L615.98 333.594C612.599 337.477 607.569 339.944 601.934 339.944V342.444V344.944C609.057 344.944 615.448 341.818 619.751 336.877L617.866 335.235ZM601.934 342.444V339.944C595.087 339.944 589.125 336.296 585.944 330.899L583.79 332.169L581.636 333.438C585.696 340.325 593.276 344.944 601.934 344.944V342.444ZM650.841 335.235L648.953 336.874C653.243 341.816 659.621 344.944 666.727 344.944V342.444V339.944C661.114 339.944 656.099 337.479 652.728 333.596L650.841 335.235ZM666.727 342.444V344.944C675.365 344.944 682.925 340.321 686.974 333.436L684.819 332.169L682.664 330.902C679.49 336.299 673.547 339.944 666.727 339.944V342.444Z" fill="#E85DA0"/>
<path d="M663.467 307.956C663.467 309.336 664.586 310.456 665.967 310.456C667.348 310.456 668.467 309.336 668.467 307.956H663.467ZM600.145 307.956C600.145 309.336 601.264 310.456 602.645 310.456C604.026 310.456 605.145 309.336 605.145 307.956H600.145ZM663.393 272.629L663.709 270.149L663.709 270.149L663.393 272.629ZM671.834 281.025L674.318 280.745L674.318 280.743L671.834 281.025ZM604.73 272.629L604.418 270.148L604.418 270.149L604.73 272.629ZM596.175 281.025L593.691 280.74L593.691 280.741L596.175 281.025ZM665.967 307.956H668.467C668.467 289.112 653.167 273.846 634.306 273.846V276.346V278.846C650.414 278.846 663.467 291.881 663.467 307.956H665.967ZM634.306 276.346V273.846C615.445 273.846 600.145 289.115 600.145 307.956H602.645H605.145C605.145 291.884 618.199 278.846 634.306 278.846V276.346ZM651.913 281.803L654.378 282.218C655.171 277.503 659.334 274.633 663.078 275.109L663.393 272.629L663.709 270.149C657.095 269.308 650.65 274.24 649.447 281.388L651.913 281.803ZM663.393 272.629L663.077 275.109C666.251 275.513 669 278.219 669.35 281.306L671.834 281.025L674.318 280.743C673.695 275.244 669.045 270.829 663.709 270.149L663.393 272.629ZM671.834 281.025L669.35 281.305C669.762 284.961 666.728 289.118 661.813 289.667L662.091 292.152L662.369 294.636C669.739 293.812 675.072 287.429 674.318 280.745L671.834 281.025ZM616.364 281.803L618.828 281.382C617.604 274.21 611.069 269.313 604.418 270.148L604.73 272.629L605.041 275.11C608.884 274.627 613.099 277.533 613.9 282.223L616.364 281.803ZM604.73 272.629L604.418 270.149C599.047 270.824 594.324 275.219 593.691 280.74L596.175 281.025L598.659 281.309C599.01 278.244 601.789 275.519 605.042 275.109L604.73 272.629ZM596.175 281.025L593.691 280.741C592.923 287.459 598.352 293.818 605.778 294.637L606.052 292.152L606.326 289.667C601.296 289.112 598.244 284.932 598.659 281.309L596.175 281.025Z" fill="#E85DA0"/>
<path d="M634.335 316.459C632.554 316.44 625.564 316.363 624.694 319.1C623.841 321.777 628.832 327.257 634.414 327.328C639.92 327.399 645.036 322.2 644.288 319.489C643.48 316.562 635.822 316.476 634.335 316.462V316.459Z" fill="#E85DA0" stroke="#E85DA0" stroke-width="2" stroke-miterlimit="10"/>
</mask>
<g mask="url(#mask5_112_1052)">
<rect x="570" y="270" width="130" height="75" fill="#D7D3E3" fill-opacity="0.7"/>
</g>
<mask id="mask6_112_1052" style="mask-type:alpha" maskUnits="userSpaceOnUse" x="0" y="135" width="130" height="75">
<path d="M126.249 194.767C127.462 195.425 128.98 194.975 129.638 193.761C130.296 192.547 129.846 191.03 128.632 190.372L126.249 194.767ZM99.6679 187.413C98.346 187.812 97.5974 189.206 97.9959 190.528C98.3944 191.85 99.7891 192.599 101.111 192.2L99.6679 187.413ZM123.379 179.192C124.733 179.462 126.05 178.584 126.32 177.23C126.591 175.876 125.713 174.559 124.359 174.289L123.379 179.192ZM108.785 177.521L108.047 175.132L108.047 175.132L108.785 177.521ZM99.294 179.304C98.1479 180.074 97.843 181.628 98.6129 182.774C99.3829 183.92 100.936 184.225 102.082 183.455L99.294 179.304ZM1.36778 189.707C0.154055 190.365 -0.296281 191.883 0.361927 193.097C1.02014 194.31 2.53764 194.761 3.75136 194.103L1.36778 189.707ZM28.8869 191.536C30.2089 191.934 31.6034 191.185 32.0016 189.863C32.3998 188.541 31.6508 187.147 30.3288 186.748L28.8869 191.536ZM5.64139 173.624C4.28747 173.895 3.40931 175.212 3.67998 176.566C3.95064 177.92 5.26763 178.798 6.62155 178.527L5.64139 173.624ZM21.2126 176.857L21.9508 174.468L21.9504 174.468L21.2126 176.857ZM27.9162 182.791C29.0627 183.56 30.6158 183.255 31.3851 182.108C32.1545 180.962 31.8487 179.409 30.7022 178.639L27.9162 182.791ZM49.751 201.877C50.6577 200.836 50.5486 199.257 49.5074 198.35C48.4661 197.443 46.8869 197.552 45.9802 198.594L49.751 201.877ZM15.9438 195.899C15.2426 194.71 13.71 194.314 12.5205 195.015C11.3311 195.716 10.9353 197.249 11.6364 198.438L15.9438 195.899ZM82.7284 198.596C81.8232 197.554 80.2442 197.442 79.2016 198.348C78.159 199.253 78.0476 200.832 78.9528 201.874L82.7284 198.596ZM116.974 198.436C117.674 197.246 117.277 195.714 116.087 195.014C114.897 194.314 113.364 194.711 112.664 195.902L116.974 198.436ZM58.1747 165.579H55.6747C55.6747 169.392 53.3827 171.321 51.8158 171.321V173.821V176.321C57.2728 176.321 60.6747 170.87 60.6747 165.579H58.1747ZM51.8158 173.821V171.321C50.2489 171.321 47.9568 169.392 47.9568 165.579H45.4568H42.9568C42.9568 170.87 46.3588 176.321 51.8158 176.321V173.821ZM45.4568 165.579H47.9568C47.9568 161.766 50.2489 159.836 51.8158 159.836V157.336V154.836C46.3588 154.836 42.9568 160.288 42.9568 165.579H45.4568ZM51.8158 157.336V159.836C53.3827 159.836 55.6747 161.766 55.6747 165.579H58.1747H60.6747C60.6747 160.288 57.2728 154.836 51.8158 154.836V157.336ZM83.6077 165.579H81.1077C81.1077 169.392 78.8156 171.321 77.2487 171.321V173.821V176.321C82.7057 176.321 86.1077 170.87 86.1077 165.579H83.6077ZM77.2487 173.821V171.321C75.6818 171.321 73.3898 169.392 73.3898 165.579H70.8898H68.3898C68.3898 170.87 71.7917 176.321 77.2487 176.321V173.821ZM70.8898 165.579H73.3898C73.3898 161.766 75.6818 159.836 77.2487 159.836V157.336V154.836C71.7917 154.836 68.3898 160.288 68.3898 165.579H70.8898ZM77.2487 157.336V159.836C78.8156 159.836 81.1077 161.766 81.1077 165.579H83.6077H86.1077C86.1077 160.288 82.7057 154.836 77.2487 154.836V157.336ZM127.441 192.569L128.632 190.372C123.271 187.464 117.123 185.81 110.599 185.81V188.31V190.81C116.269 190.81 121.6 192.246 126.249 194.767L127.441 192.569ZM110.599 188.31V185.81C106.804 185.81 103.131 186.369 99.6679 187.413L100.389 189.807L101.111 192.2C104.109 191.296 107.296 190.81 110.599 190.81V188.31ZM123.869 176.74L124.359 174.289C119.105 173.238 113.52 173.442 108.047 175.132L108.785 177.521L109.522 179.91C114.179 178.471 118.918 178.3 123.379 179.192L123.869 176.74ZM108.785 177.521L108.047 175.132C104.863 176.116 101.929 177.534 99.294 179.304L100.688 181.38L102.082 183.455C104.316 181.954 106.808 180.749 109.523 179.91L108.785 177.521ZM2.55957 191.905L3.75136 194.103C8.40036 191.581 13.728 190.146 19.3983 190.146L19.3983 187.646V185.146C12.8739 185.146 6.72928 186.8 1.36778 189.707L2.55957 191.905ZM19.3983 187.646L19.3983 190.146C22.7009 190.146 25.8849 190.632 28.8869 191.536L29.6078 189.142L30.3288 186.748C26.8637 185.705 23.194 185.146 19.3983 185.146V187.646ZM6.13147 176.076L6.62155 178.527C11.0821 177.636 15.8184 177.807 20.4748 179.245L21.2126 176.857L21.9504 174.468C16.4769 172.777 10.8956 172.574 5.64139 173.624L6.13147 176.076ZM21.2126 176.857L20.4745 179.245C23.1885 180.084 25.6784 181.29 27.9162 182.791L29.3092 180.715L30.7022 178.639C28.0655 176.87 25.135 175.452 21.9508 174.468L21.2126 176.857ZM47.8656 200.235L45.9802 198.594C42.5987 202.477 37.5686 204.944 31.9341 204.944V207.444V209.944C39.0574 209.944 45.4483 206.818 49.751 201.877L47.8656 200.235ZM31.9341 207.444V204.944C25.0869 204.944 19.1249 201.296 15.9438 195.899L13.7901 197.169L11.6364 198.438C15.6959 205.325 23.2765 209.944 31.9341 209.944V207.444ZM80.8406 200.235L78.9528 201.874C83.2434 206.816 89.6208 209.944 96.7266 209.944V207.444V204.944C91.1144 204.944 86.0992 202.479 82.7284 198.596L80.8406 200.235ZM96.7266 207.444V209.944C105.365 209.944 112.925 205.321 116.974 198.436L114.819 197.169L112.664 195.902C109.49 201.299 103.547 204.944 96.7266 204.944V207.444Z" fill="#E85DA0"/>
<path d="M93.4671 172.956C93.4671 174.336 94.5864 175.456 95.9671 175.456C97.3479 175.456 98.4671 174.336 98.4671 172.956H93.4671ZM30.145 172.956C30.145 174.336 31.2643 175.456 32.645 175.456C34.0257 175.456 35.145 174.336 35.145 172.956H30.145ZM93.3933 137.629L93.7094 135.149L93.7088 135.149L93.3933 137.629ZM101.834 146.025L104.318 145.745L104.318 145.743L101.834 146.025ZM34.7295 137.629L34.4181 135.148L34.4175 135.149L34.7295 137.629ZM26.1751 146.025L23.6914 145.74L23.6913 145.741L26.1751 146.025ZM95.9671 172.956H98.4671C98.4671 154.112 83.1671 138.846 64.3061 138.846V141.346V143.846C80.4136 143.846 93.4671 156.881 93.4671 172.956H95.9671ZM64.3061 141.346V138.846C45.4449 138.846 30.145 154.115 30.145 172.956H32.645H35.145C35.145 156.884 48.1987 143.846 64.3061 143.846V141.346ZM81.9125 146.803L84.3779 147.218C85.1713 142.503 89.3343 139.633 93.0779 140.109L93.3933 137.629L93.7088 135.149C87.0949 134.308 80.6502 139.24 79.4472 146.388L81.9125 146.803ZM93.3933 137.629L93.0772 140.109C96.2509 140.513 99.0002 143.219 99.3499 146.306L101.834 146.025L104.318 145.743C103.695 140.244 99.0447 135.829 93.7094 135.149L93.3933 137.629ZM101.834 146.025L99.3497 146.305C99.7621 149.961 96.7281 154.118 91.8129 154.667L92.0908 157.152L92.3687 159.636C99.7392 158.812 105.072 152.429 104.318 145.745L101.834 146.025ZM46.3639 146.803L48.8282 146.382C47.604 139.21 41.0693 134.313 34.4181 135.148L34.7295 137.629L35.0409 140.11C38.8837 139.627 43.0989 142.533 43.8995 147.223L46.3639 146.803ZM34.7295 137.629L34.4175 135.149C29.0474 135.824 24.3241 140.219 23.6914 145.74L26.1751 146.025L28.6588 146.309C29.0101 143.244 31.7889 140.519 35.0415 140.109L34.7295 137.629ZM26.1751 146.025L23.6913 145.741C22.9227 152.459 28.3518 158.818 35.7778 159.637L36.0519 157.152L36.3261 154.667C31.2958 154.112 28.2444 149.932 28.6589 146.309L26.1751 146.025Z" fill="#E85DA0"/>
<path d="M64.3345 181.459C62.5542 181.44 55.5639 181.363 54.6937 184.1C53.8405 186.777 58.8316 192.257 64.4141 192.328C69.9199 192.399 75.0361 187.2 74.2881 184.489C73.4805 181.562 65.8219 181.476 64.3345 181.462V181.459Z" fill="#E85DA0" stroke="#E85DA0" stroke-width="2" stroke-miterlimit="10"/>
</mask>
<g mask="url(#mask6_112_1052)">
<rect y="135" width="130" height="75" fill="#D7D3E3" fill-opacity="0.7"/>
</g>
<mask id="mask7_112_1052" style="mask-type:alpha" maskUnits="userSpaceOnUse" x="0" y="405" width="130" height="75">
<path d="M126.249 464.767C127.462 465.425 128.98 464.975 129.638 463.761C130.296 462.547 129.846 461.03 128.632 460.372L126.249 464.767ZM99.6679 457.413C98.346 457.812 97.5974 459.206 97.9959 460.528C98.3944 461.85 99.7891 462.599 101.111 462.2L99.6679 457.413ZM123.379 449.192C124.733 449.462 126.05 448.584 126.32 447.23C126.591 445.876 125.713 444.559 124.359 444.289L123.379 449.192ZM108.785 447.521L108.047 445.132L108.047 445.132L108.785 447.521ZM99.294 449.304C98.1479 450.074 97.843 451.628 98.6129 452.774C99.3829 453.92 100.936 454.225 102.082 453.455L99.294 449.304ZM1.36778 459.707C0.154055 460.365 -0.296281 461.883 0.361927 463.097C1.02014 464.31 2.53764 464.761 3.75136 464.103L1.36778 459.707ZM28.8869 461.536C30.2089 461.934 31.6034 461.185 32.0016 459.863C32.3998 458.541 31.6508 457.147 30.3288 456.748L28.8869 461.536ZM5.64139 443.624C4.28747 443.895 3.40931 445.212 3.67998 446.566C3.95064 447.92 5.26763 448.798 6.62155 448.527L5.64139 443.624ZM21.2126 446.857L21.9508 444.468L21.9504 444.468L21.2126 446.857ZM27.9162 452.791C29.0627 453.56 30.6158 453.255 31.3851 452.108C32.1545 450.962 31.8487 449.409 30.7022 448.639L27.9162 452.791ZM49.751 471.877C50.6577 470.836 50.5486 469.257 49.5074 468.35C48.4661 467.443 46.8869 467.552 45.9802 468.594L49.751 471.877ZM15.9438 465.899C15.2426 464.71 13.71 464.314 12.5205 465.015C11.3311 465.716 10.9353 467.249 11.6364 468.438L15.9438 465.899ZM82.7284 468.596C81.8232 467.554 80.2442 467.442 79.2016 468.348C78.159 469.253 78.0476 470.832 78.9528 471.874L82.7284 468.596ZM116.974 468.436C117.674 467.246 117.277 465.714 116.087 465.014C114.897 464.314 113.364 464.711 112.664 465.902L116.974 468.436ZM58.1747 435.579H55.6747C55.6747 439.392 53.3827 441.321 51.8158 441.321V443.821V446.321C57.2728 446.321 60.6747 440.87 60.6747 435.579H58.1747ZM51.8158 443.821V441.321C50.2489 441.321 47.9568 439.392 47.9568 435.579H45.4568H42.9568C42.9568 440.87 46.3588 446.321 51.8158 446.321V443.821ZM45.4568 435.579H47.9568C47.9568 431.766 50.2489 429.836 51.8158 429.836V427.336V424.836C46.3588 424.836 42.9568 430.288 42.9568 435.579H45.4568ZM51.8158 427.336V429.836C53.3827 429.836 55.6747 431.766 55.6747 435.579H58.1747H60.6747C60.6747 430.288 57.2728 424.836 51.8158 424.836V427.336ZM83.6077 435.579H81.1077C81.1077 439.392 78.8156 441.321 77.2487 441.321V443.821V446.321C82.7057 446.321 86.1077 440.87 86.1077 435.579H83.6077ZM77.2487 443.821V441.321C75.6818 441.321 73.3898 439.392 73.3898 435.579H70.8898H68.3898C68.3898 440.87 71.7917 446.321 77.2487 446.321V443.821ZM70.8898 435.579H73.3898C73.3898 431.766 75.6818 429.836 77.2487 429.836V427.336V424.836C71.7917 424.836 68.3898 430.288 68.3898 435.579H70.8898ZM77.2487 427.336V429.836C78.8156 429.836 81.1077 431.766 81.1077 435.579H83.6077H86.1077C86.1077 430.288 82.7057 424.836 77.2487 424.836V427.336ZM127.441 462.569L128.632 460.372C123.271 457.464 117.123 455.81 110.599 455.81V458.31V460.81C116.269 460.81 121.6 462.246 126.249 464.767L127.441 462.569ZM110.599 458.31V455.81C106.804 455.81 103.131 456.369 99.6679 457.413L100.389 459.807L101.111 462.2C104.109 461.296 107.296 460.81 110.599 460.81V458.31ZM123.869 446.74L124.359 444.289C119.105 443.238 113.52 443.442 108.047 445.132L108.785 447.521L109.522 449.91C114.179 448.471 118.918 448.3 123.379 449.192L123.869 446.74ZM108.785 447.521L108.047 445.132C104.863 446.116 101.929 447.534 99.294 449.304L100.688 451.38L102.082 453.455C104.316 451.954 106.808 450.749 109.523 449.91L108.785 447.521ZM2.55957 461.905L3.75136 464.103C8.40036 461.581 13.728 460.146 19.3983 460.146L19.3983 457.646V455.146C12.8739 455.146 6.72928 456.8 1.36778 459.707L2.55957 461.905ZM19.3983 457.646L19.3983 460.146C22.7009 460.146 25.8849 460.632 28.8869 461.536L29.6078 459.142L30.3288 456.748C26.8637 455.705 23.194 455.146 19.3983 455.146V457.646ZM6.13147 446.076L6.62155 448.527C11.0821 447.636 15.8184 447.807 20.4748 449.245L21.2126 446.857L21.9504 444.468C16.4769 442.777 10.8956 442.574 5.64139 443.624L6.13147 446.076ZM21.2126 446.857L20.4745 449.245C23.1885 450.084 25.6784 451.29 27.9162 452.791L29.3092 450.715L30.7022 448.639C28.0655 446.87 25.135 445.452 21.9508 444.468L21.2126 446.857ZM47.8656 470.235L45.9802 468.594C42.5987 472.477 37.5686 474.944 31.9341 474.944V477.444V479.944C39.0574 479.944 45.4483 476.818 49.751 471.877L47.8656 470.235ZM31.9341 477.444V474.944C25.0869 474.944 19.1249 471.296 15.9438 465.899L13.7901 467.169L11.6364 468.438C15.6959 475.325 23.2765 479.944 31.9341 479.944V477.444ZM80.8406 470.235L78.9528 471.874C83.2434 476.816 89.6208 479.944 96.7266 479.944V477.444V474.944C91.1144 474.944 86.0992 472.479 82.7284 468.596L80.8406 470.235ZM96.7266 477.444V479.944C105.365 479.944 112.925 475.321 116.974 468.436L114.819 467.169L112.664 465.902C109.49 471.299 103.547 474.944 96.7266 474.944V477.444Z" fill="#E85DA0"/>
<path d="M93.4671 442.956C93.4671 444.336 94.5864 445.456 95.9671 445.456C97.3479 445.456 98.4671 444.336 98.4671 442.956H93.4671ZM30.145 442.956C30.145 444.336 31.2643 445.456 32.645 445.456C34.0257 445.456 35.145 444.336 35.145 442.956H30.145ZM93.3933 407.629L93.7094 405.149L93.7088 405.149L93.3933 407.629ZM101.834 416.025L104.318 415.745L104.318 415.743L101.834 416.025ZM34.7295 407.629L34.4181 405.148L34.4175 405.149L34.7295 407.629ZM26.1751 416.025L23.6914 415.74L23.6913 415.741L26.1751 416.025ZM95.9671 442.956H98.4671C98.4671 424.112 83.1671 408.846 64.3061 408.846V411.346V413.846C80.4136 413.846 93.4671 426.881 93.4671 442.956H95.9671ZM64.3061 411.346V408.846C45.4449 408.846 30.145 424.115 30.145 442.956H32.645H35.145C35.145 426.884 48.1987 413.846 64.3061 413.846V411.346ZM81.9125 416.803L84.3779 417.218C85.1713 412.503 89.3343 409.633 93.0779 410.109L93.3933 407.629L93.7088 405.149C87.0949 404.308 80.6502 409.24 79.4472 416.388L81.9125 416.803ZM93.3933 407.629L93.0772 410.109C96.2509 410.513 99.0002 413.219 99.3499 416.306L101.834 416.025L104.318 415.743C103.695 410.244 99.0447 405.829 93.7094 405.149L93.3933 407.629ZM101.834 416.025L99.3497 416.305C99.7621 419.961 96.7281 424.118 91.8129 424.667L92.0908 427.152L92.3687 429.636C99.7392 428.812 105.072 422.429 104.318 415.745L101.834 416.025ZM46.3639 416.803L48.8282 416.382C47.604 409.21 41.0693 404.313 34.4181 405.148L34.7295 407.629L35.0409 410.11C38.8837 409.627 43.0989 412.533 43.8995 417.223L46.3639 416.803ZM34.7295 407.629L34.4175 405.149C29.0474 405.824 24.3241 410.219 23.6914 415.74L26.1751 416.025L28.6588 416.309C29.0101 413.244 31.7889 410.519 35.0415 410.109L34.7295 407.629ZM26.1751 416.025L23.6913 415.741C22.9227 422.459 28.3518 428.818 35.7778 429.637L36.0519 427.152L36.3261 424.667C31.2958 424.112 28.2444 419.932 28.6589 416.309L26.1751 416.025Z" fill="#E85DA0"/>
<path d="M64.3345 451.459C62.5542 451.44 55.5639 451.363 54.6937 454.1C53.8405 456.777 58.8316 462.257 64.4141 462.328C69.9199 462.399 75.0361 457.2 74.2881 454.489C73.4805 451.562 65.8219 451.476 64.3345 451.462V451.459Z" fill="#E85DA0" stroke="#E85DA0" stroke-width="2" stroke-miterlimit="10"/>
</mask>
<g mask="url(#mask7_112_1052)">
<rect y="405" width="130" height="75" fill="#D7D3E3" fill-opacity="0.7"/>
</g>
</g>
<defs>
<clipPath id="clip0_112_1052">
<rect width="646" height="510" fill="white"/>
</clipPath>
</defs>
</svg>
