<svg width="287" height="21" viewBox="0 0 287 21" fill="none" xmlns="http://www.w3.org/2000/svg">
<g clip-path="url(#clip0_75_2259)">
<path d="M0 12.2093L2.18021 10.5C10.0443 4.33449 21.1015 4.33449 28.9656 10.5V10.5C36.8297 16.6655 47.887 16.6655 55.751 10.5V10.5C63.6151 4.33449 74.6724 4.33449 82.5365 10.5V10.5C90.4005 16.6655 101.458 16.6655 109.322 10.5V10.5C117.186 4.33449 128.243 4.33449 136.107 10.5V10.5C143.971 16.6655 155.029 16.6655 162.893 10.5V10.5C170.757 4.33449 181.814 4.33457 189.678 10.5001V10.5001C197.542 16.6655 208.599 16.6655 216.463 10.5001V10.5001C224.327 4.33461 235.385 4.33471 243.249 10.5004V10.5004C251.112 16.6658 262.171 16.6642 270.035 10.4998V10.4998C277.899 4.3357 288.958 4.33451 296.82 10.5V10.5C304.682 16.6655 315.741 16.6641 323.605 10.5V10.5C331.469 4.33594 342.528 4.33451 350.39 10.5V10.5C358.252 16.6655 369.308 16.6665 377.172 10.5024L377.598 10.1687C385.215 4.19775 395.924 4.19872 403.541 10.171L404.906 11.2417C412.112 16.8923 422.328 16.5801 429.175 10.5V10.5C436.022 4.4199 446.238 4.10764 453.444 9.75815L456.57 12.2093" stroke="url(#paint0_linear_75_2259)" stroke-width="3" stroke-linecap="round"/>
</g>
<defs>
<linearGradient id="paint0_linear_75_2259" x1="456.57" y1="10.5" x2="0" y2="10.5" gradientUnits="userSpaceOnUse">
<stop stop-color="#8F69C4"/>
<stop offset="1" stop-color="#727BC1"/>
</linearGradient>
<clipPath id="clip0_75_2259">
<rect width="287" height="21" fill="white"/>
</clipPath>
</defs>
</svg>
